# xmcd CD database file
#
# Track frame offsets:
#	150
#	14355
#	30262
#	43925
#	59137
#	76482
#	92260
#
# Disc length: 1468 seconds
#
# Revision: 0
# Processed by: cddbd v1.5PL3 Copyright (c) Steve Scherf et al.
# Submitted via: CDex 1.51
#
DISCID=4e05ba07
DTITLE=藤　圭子 - 藤 圭子　歌唱第２集
DYEAR=1999
DGENRE=Blues
TTITLE0=女は恋に生きてゆく
TTITLE1=貴方ひとすじ
TTITLE2=女だから
TTITLE3=みちのく小唄
TTITLE4=私は京都へ帰ります
TTITLE5=京都ブルース
TTITLE6=面影平野
EXTD=YEAR: 1999
EXTT0=
EXTT1=
EXTT2=
EXTT3=
EXTT4=
EXTT5=
EXTT6=
PLAYORDER=
